<svg width="32" height="32" fill="none" xmlns="http://www.w3.org/2000/svg"><path fill-rule="evenodd" clip-rule="evenodd" d="M13 4a1 1 0 0 1 1-1h4a1 1 0 0 1 1 1v2a.999.999 0 0 1-.066.359l4.314.54A2 2 0 0 1 25 8.882v5.232l3.03 1.05a1 1 0 0 1 .61 1.296l-2.32 6.184c-.138.37-.655.459-.96.208A6.094 6.094 0 0 0 21.5 21.5c-2.13 0-3.756 1.009-4.7 1.593-.384.239-.655.407-.8.407-.167 0-.556-.222-1.074-.518C13.889 22.389 12.333 21.5 11 21.5c-1.307 0-3.148 1-4.323 1.64l-.187.101a.485.485 0 0 1-.685-.261L3.36 16.46a1 1 0 0 1 .61-1.296L7 14.115V8.883a2 2 0 0 1 1.752-1.985l4.314-.54A.999.999 0 0 1 13 6V4Zm10 9.423v-4.54l-7-.875-7 .875v4.54l6.967-2.412a.1.1 0 0 1 .066 0L23 13.423ZM4.69 26.033c2.246-1.381 6.607-2.92 10.77-.826.337.17.736.162 1.065-.02 2.457-1.359 7.203-2.67 10.545.827a.934.934 0 0 1 .14 1.065l-.09.18c-.305.61-1.136.755-1.724.409-1.792-1.055-4.977-1.845-8.917.086a1.113 1.113 0 0 1-.96.006c-2.148-1.001-6.23-2.017-9.472-.036-.562.343-1.336.198-1.63-.391l-.044-.086c-.216-.433-.094-.96.317-1.214Z" fill="#48cae4"/></svg>